<?xml version="1.0" encoding="utf-8"?>
<svg version="1.1" xmlns="http://www.w3.org/2000/svg" viewBox="-0.790944 -1.405 2.18652 3.275">
	<defs>
		<marker id="secArrow-blue" markerWidth="3" markerHeight="4" refX="3" refY="2" orient="auto">
			<path d="M3,2 L0,4 L0,0 L3,2" fill="blue" style="stroke:none;fill-opacity:0.5"/>
		</marker>
		<marker id="secArrow-seagreen" markerWidth="3" markerHeight="4" refX="3" refY="2" orient="auto">
			<path d="M3,2 L0,4 L0,0 L3,2" fill="seagreen" style="stroke:none;fill-opacity:0.5"/>
		</marker>
		<marker id="secArrow-orange" markerWidth="3" markerHeight="4" refX="3" refY="2" orient="auto">
			<path d="M3,2 L0,4 L0,0 L3,2" fill="orange" style="stroke:none;fill-opacity:0.5"/>
		</marker>
	</defs>
	<g>
		<g>
			<g>
				<polygon id="Seg_A_1" points="0,-0 0.0825,-0 0.165,-0 0.2475,-0 0.33,-0 0.4125,-0 0.495,-0 0.5775,-0 0.66,-0 0.66,-0.094 0,-0.094 " style="fill:#eee;stroke:darkgrey;stroke-width:0.005"/>
				<polyline points="0,-0 0.0825,-0 0.165,-0 0.2475,-0 0.33,-0 0.4125,-0 0.495,-0 0.5775,-0 0.66,-0 " style="fill:#eee;stroke:black;stroke-width:0.010"/>
				<polygon points="0.02,-0.0188 0.02,-0.0752 0.04,-0.047 " style="fill:#ccc;stroke-width:0"/>
				<text x="0.33000000000000002" y="-0.032899999999999999" text-anchor="middle" font-size="0.040000000000000001" style="fill:darkgrey">0</text>
			</g>
			<g>
				<polygon id="Seg_A_2" points="0.66,-0 0.71633,-0 0.772661,-3.66468e-08 0.828991,-4.17485e-05 0.885319,-0.000445667 0.941624,-0.00204461 0.997778,-0.00636481 1.0533,-0.0156938 1.10694,-0.0326832 1.07097,-0.119528 0.66,-0.094 " style="fill:#eee;stroke:darkgrey;stroke-width:0.005"/>
				<polyline points="0.66,-0 0.71633,-0 0.772661,-3.66468e-08 0.828991,-4.17485e-05 0.885319,-0.000445667 0.941624,-0.00204461 0.997778,-0.00636481 1.0533,-0.0156938 1.10694,-0.0326832 " style="fill:#eee;stroke:black;stroke-width:0.010"/>
				<polygon points="0.68,-0.0188 0.68,-0.0752 0.7,-0.047 " style="fill:#ccc;stroke-width:0"/>
				<text x="0.8846430891240249" y="-0.033340803291759029" text-anchor="middle" font-size="0.040000000000000001" style="fill:darkgrey">1</text>
			</g>
			<g>
				<polygon id="Seg_A_3" points="1.10694,-0.0326832 1.13405,-0.0455047 1.15977,-0.0609216 1.18386,-0.0787854 1.20608,-0.0989241 1.22621,-0.121144 1.24408,-0.14523 1.2595,-0.170952 1.27232,-0.198061 1.16748,-0.241486 1.06351,-0.137523 " style="fill:#eee;stroke:darkgrey;stroke-width:0.005"/>
				<polyline points="1.10694,-0.0326832 1.13405,-0.0455047 1.15977,-0.0609216 1.18386,-0.0787854 1.20608,-0.0989241 1.22621,-0.121144 1.24408,-0.14523 1.2595,-0.170952 1.27232,-0.198061 " style="fill:#eee;stroke:black;stroke-width:0.010"/>
				<polygon points="1.11673,-0.0613047 1.09068,-0.124208 1.12218,-0.10041 " style="fill:#ccc;stroke-width:0"/>
				<text x="1.1659556532740922" y="-0.12202276087590788" text-anchor="middle" font-size="0.040000000000000001" style="fill:darkgrey">2</text>
			</g>
			<g>
				<polygon id="Seg_A_4" points="1.27232,-0.198061 1.28242,-0.226296 1.28971,-0.255385 1.29411,-0.285048 1.29558,-0.315 1.29411,-0.344952 1.28971,-0.374615 1.28242,-0.403704 1.27232,-0.431939 1.16748,-0.388514 1.16748,-0.241486 " style="fill:#eee;stroke:darkgrey;stroke-width:0.005"/>
				<polyline points="1.27232,-0.198061 1.28242,-0.226296 1.28971,-0.255385 1.29411,-0.285048 1.29558,-0.315 1.29411,-0.344952 1.28971,-0.374615 1.28242,-0.403704 1.27232,-0.431939 " style="fill:#eee;stroke:black;stroke-width:0.010"/>
				<polygon points="1.259,-0.225223 1.1961,-0.251279 1.2352,-0.256729 " style="fill:#ccc;stroke-width:0"/>
				<text x="1.2388388712364393" y="-0.29797841414999998" text-anchor="middle" font-size="0.040000000000000001" style="fill:darkgrey">3</text>
			</g>
			<g>
				<polygon id="Seg_A_5" points="1.27232,-0.431939 1.2595,-0.459048 1.24408,-0.48477 1.22621,-0.508856 1.20608,-0.531076 1.18386,-0.551215 1.15977,-0.569078 1.13405,-0.584495 1.10694,-0.597317 1.06351,-0.492477 1.16748,-0.388514 " style="fill:#eee;stroke:darkgrey;stroke-width:0.005"/>
				<polyline points="1.27232,-0.431939 1.2595,-0.459048 1.24408,-0.48477 1.22621,-0.508856 1.20608,-0.531076 1.18386,-0.551215 1.15977,-0.569078 1.13405,-0.584495 1.10694,-0.597317 " style="fill:#eee;stroke:black;stroke-width:0.010"/>
				<polygon points="1.2437,-0.441732 1.18079,-0.415676 1.20459,-0.447182 " style="fill:#ccc;stroke-width:0"/>
				<text x="1.1659556532740925" y="-0.47393406742409222" text-anchor="middle" font-size="0.040000000000000001" style="fill:darkgrey">4</text>
			</g>
			<g>
				<polygon id="Seg_A_6" points="1.10694,-0.597317 1.0533,-0.614306 0.997778,-0.623635 0.941624,-0.627955 0.885319,-0.629554 0.828991,-0.629958 0.772661,-0.63 0.71633,-0.63 0.66,-0.63 0.66,-0.536 1.07097,-0.510472 " style="fill:#eee;stroke:darkgrey;stroke-width:0.005"/>
				<polyline points="1.10694,-0.597317 1.0533,-0.614306 0.997778,-0.623635 0.941624,-0.627955 0.885319,-0.629554 0.828991,-0.629958 0.772661,-0.63 0.71633,-0.63 0.66,-0.63 " style="fill:#eee;stroke:black;stroke-width:0.010"/>
				<polygon points="1.08127,-0.587602 1.05968,-0.535495 1.052,-0.569202 " style="fill:#ccc;stroke-width:0"/>
				<text x="0.88464308912402512" y="-0.56845919670824108" text-anchor="middle" font-size="0.040000000000000001" style="fill:darkgrey">5</text>
			</g>
			<g>
				<polygon id="Seg_A_7" points="0.66,-0.63 0.5775,-0.63 0.495,-0.63 0.4125,-0.63 0.33,-0.63 0.2475,-0.63 0.165,-0.63 0.0825,-0.63 -3.38696e-17,-0.63 -7.56139e-17,-0.536 0.66,-0.536 " style="fill:#eee;stroke:darkgrey;stroke-width:0.005"/>
				<polyline points="0.66,-0.63 0.5775,-0.63 0.495,-0.63 0.4125,-0.63 0.33,-0.63 0.2475,-0.63 0.165,-0.63 0.0825,-0.63 -3.38696e-17,-0.63 " style="fill:#eee;stroke:black;stroke-width:0.010"/>
				<polygon points="0.64,-0.6112 0.64,-0.5548 0.62,-0.583 " style="fill:#ccc;stroke-width:0"/>
				<text x="0.33000000000000002" y="-0.56890000000000041" text-anchor="middle" font-size="0.040000000000000001" style="fill:darkgrey">6</text>
			</g>
			<g>
				<polygon id="Seg_A_8" points="0,-0.63 -0.0563303,-0.63 -0.112661,-0.63 -0.168991,-0.629958 -0.225319,-0.629554 -0.281624,-0.627955 -0.337778,-0.623635 -0.393297,-0.614306 -0.446939,-0.597317 -0.410967,-0.510472 -4.17444e-17,-0.536 " style="fill:#eee;stroke:darkgrey;stroke-width:0.005"/>
				<polyline points="0,-0.63 -0.0563303,-0.63 -0.112661,-0.63 -0.168991,-0.629958 -0.225319,-0.629554 -0.281624,-0.627955 -0.337778,-0.623635 -0.393297,-0.614306 -0.446939,-0.597317 " style="fill:#eee;stroke:black;stroke-width:0.010"/>
				<polygon points="-0.02,-0.6112 -0.02,-0.5548 -0.04,-0.583 " style="fill:#ccc;stroke-width:0"/>
				<text x="-0.22464308912402489" y="-0.56845919670824152" text-anchor="middle" font-size="0.040000000000000001" style="fill:darkgrey">7</text>
			</g>
			<g>
				<polygon id="Seg_A_9" points="-0.446939,-0.597317 -0.474048,-0.584495 -0.49977,-0.569078 -0.523856,-0.551215 -0.546076,-0.531076 -0.566215,-0.508856 -0.584078,-0.48477 -0.599495,-0.459048 -0.612317,-0.431939 -0.507477,-0.388514 -0.403514,-0.492477 " style="fill:#eee;stroke:darkgrey;stroke-width:0.005"/>
				<polyline points="-0.446939,-0.597317 -0.474048,-0.584495 -0.49977,-0.569078 -0.523856,-0.551215 -0.546076,-0.531076 -0.566215,-0.508856 -0.584078,-0.48477 -0.599495,-0.459048 -0.612317,-0.431939 " style="fill:#eee;stroke:black;stroke-width:0.010"/>
				<polygon points="-0.456732,-0.568695 -0.430676,-0.505792 -0.462182,-0.52959 " style="fill:#ccc;stroke-width:0"/>
				<text x="-0.50595565327409242" y="-0.47393406742409294" text-anchor="middle" font-size="0.040000000000000001" style="fill:darkgrey">8</text>
			</g>
			<g>
				<polygon id="Seg_A_10" points="-0.612317,-0.431939 -0.622419,-0.403704 -0.629706,-0.374615 -0.634106,-0.344952 -0.635577,-0.315 -0.634106,-0.285048 -0.629706,-0.255385 -0.622419,-0.226296 -0.612317,-0.198061 -0.507477,-0.241486 -0.507477,-0.388514 " style="fill:#eee;stroke:darkgrey;stroke-width:0.005"/>
				<polyline points="-0.612317,-0.431939 -0.622419,-0.403704 -0.629706,-0.374615 -0.634106,-0.344952 -0.635577,-0.315 -0.634106,-0.285048 -0.629706,-0.255385 -0.622419,-0.226296 -0.612317,-0.198061 " style="fill:#eee;stroke:black;stroke-width:0.010"/>
				<polygon points="-0.599003,-0.404777 -0.536099,-0.378721 -0.575204,-0.373271 " style="fill:#ccc;stroke-width:0"/>
				<text x="-0.57883887123643929" y="-0.29797841415000059" text-anchor="middle" font-size="0.040000000000000001" style="fill:darkgrey">9</text>
			</g>
			<g>
				<polygon id="Seg_A_11" points="-0.612317,-0.198061 -0.599495,-0.170952 -0.584078,-0.14523 -0.566215,-0.121144 -0.546076,-0.0989241 -0.523856,-0.0787854 -0.49977,-0.0609216 -0.474048,-0.0455047 -0.446939,-0.0326832 -0.403514,-0.137523 -0.507477,-0.241486 " style="fill:#eee;stroke:darkgrey;stroke-width:0.005"/>
				<polyline points="-0.612317,-0.198061 -0.599495,-0.170952 -0.584078,-0.14523 -0.566215,-0.121144 -0.546076,-0.0989241 -0.523856,-0.0787854 -0.49977,-0.0609216 -0.474048,-0.0455047 -0.446939,-0.0326832 " style="fill:#eee;stroke:black;stroke-width:0.010"/>
				<polygon points="-0.583695,-0.188268 -0.520792,-0.214324 -0.54459,-0.182818 " style="fill:#ccc;stroke-width:0"/>
				<text x="-0.50595565327409264" y="-0.12202276087590838" text-anchor="middle" font-size="0.040000000000000001" style="fill:darkgrey">10</text>
			</g>
			<g>
				<polygon id="Seg_A_12" points="-0.446939,-0.0326832 -0.393297,-0.0156938 -0.337778,-0.00636481 -0.281624,-0.00204461 -0.225319,-0.000445667 -0.168991,-4.17485e-05 -0.112661,-3.66468e-08 -0.0563303,-1.04043e-16 -4.44089e-16,-5.55112e-17 -3.54307e-16,-0.094 -0.410967,-0.119528 " style="fill:#eee;stroke:darkgrey;stroke-width:0.005"/>
				<polyline points="-0.446939,-0.0326832 -0.393297,-0.0156938 -0.337778,-0.00636481 -0.281624,-0.00204461 -0.225319,-0.000445667 -0.168991,-4.17485e-05 -0.112661,-3.66468e-08 -0.0563303,-1.04043e-16 -4.44089e-16,-5.55112e-17 " style="fill:#eee;stroke:black;stroke-width:0.010"/>
				<polygon points="-0.421267,-0.0423985 -0.399684,-0.0945053 -0.391998,-0.0607982 " style="fill:#ccc;stroke-width:0"/>
				<text x="-0.22464308912402528" y="-0.033340803291759327" text-anchor="middle" font-size="0.040000000000000001" style="fill:darkgrey">11</text>
			</g>
			<g>
				<polygon id="Seg_B_13" points="0.330093,-0.66 0.386423,-0.66 0.442754,-0.66 0.499084,-0.660042 0.555412,-0.660446 0.611717,-0.662045 0.667871,-0.666365 0.72339,-0.675694 0.777032,-0.692683 0.74106,-0.779528 0.330093,-0.754 " style="fill:#eee;stroke:darkgrey;stroke-width:0.005"/>
				<polyline points="0.330093,-0.66 0.386423,-0.66 0.442754,-0.66 0.499084,-0.660042 0.555412,-0.660446 0.611717,-0.662045 0.667871,-0.666365 0.72339,-0.675694 0.777032,-0.692683 " style="fill:#eee;stroke:black;stroke-width:0.010"/>
				<polygon points="0.350093,-0.6788 0.350093,-0.7352 0.370093,-0.707 " style="fill:#ccc;stroke-width:0"/>
				<text x="0.55473608912402494" y="-0.6933408032917594" text-anchor="middle" font-size="0.040000000000000001" style="fill:darkgrey">12</text>
			</g>
			<g>
				<polygon id="Seg_B_14" points="0.777032,-0.692683 0.804141,-0.705505 0.829863,-0.720922 0.853949,-0.738785 0.876169,-0.758924 0.896308,-0.781144 0.914171,-0.80523 0.929588,-0.830952 0.94241,-0.858061 0.83757,-0.901486 0.733607,-0.797523 " style="fill:#eee;stroke:darkgrey;stroke-width:0.005"/>
				<polyline points="0.777032,-0.692683 0.804141,-0.705505 0.829863,-0.720922 0.853949,-0.738785 0.876169,-0.758924 0.896308,-0.781144 0.914171,-0.80523 0.929588,-0.830952 0.94241,-0.858061 " style="fill:#eee;stroke:black;stroke-width:0.010"/>
				<polygon points="0.786825,-0.721305 0.760769,-0.784208 0.792275,-0.76041 " style="fill:#ccc;stroke-width:0"/>
				<text x="0.8360486532740925" y="-0.78202276087590805" text-anchor="middle" font-size="0.040000000000000001" style="fill:darkgrey">13</text>
			</g>
			<g>
				<polygon id="Seg_B_15" points="0.94241,-0.858061 0.952512,-0.886296 0.959799,-0.915385 0.964199,-0.945048 0.96567,-0.975 0.964199,-1.00495 0.959799,-1.03462 0.952512,-1.0637 0.94241,-1.09194 0.83757,-1.04851 0.83757,-0.901486 " style="fill:#eee;stroke:darkgrey;stroke-width:0.005"/>
				<polyline points="0.94241,-0.858061 0.952512,-0.886296 0.959799,-0.915385 0.964199,-0.945048 0.96567,-0.975 0.964199,-1.00495 0.959799,-1.03462 0.952512,-1.0637 0.94241,-1.09194 " style="fill:#eee;stroke:black;stroke-width:0.010"/>
				<polygon points="0.929096,-0.885223 0.866192,-0.911279 0.905297,-0.916729 " style="fill:#ccc;stroke-width:0"/>
				<text x="0.90893187123643937" y="-0.95797841415000029" text-anchor="middle" font-size="0.040000000000000001" style="fill:darkgrey">14</text>
			</g>
			<g>
				<polygon id="Seg_B_16" points="0.94241,-1.09194 0.929588,-1.11905 0.914171,-1.14477 0.896308,-1.16886 0.876169,-1.19108 0.853949,-1.21121 0.829863,-1.22908 0.804141,-1.2445 0.777032,-1.25732 0.733607,-1.15248 0.83757,-1.04851 " style="fill:#eee;stroke:darkgrey;stroke-width:0.005"/>
				<polyline points="0.94241,-1.09194 0.929588,-1.11905 0.914171,-1.14477 0.896308,-1.16886 0.876169,-1.19108 0.853949,-1.21121 0.829863,-1.22908 0.804141,-1.2445 0.777032,-1.25732 " style="fill:#eee;stroke:black;stroke-width:0.010"/>
				<polygon points="0.913788,-1.10173 0.850885,-1.07568 0.874683,-1.10718 " style="fill:#ccc;stroke-width:0"/>
				<text x="0.8360486532740925" y="-1.1339340674240928" text-anchor="middle" font-size="0.040000000000000001" style="fill:darkgrey">15</text>
			</g>
			<g>
				<polygon id="Seg_B_17" points="0.777032,-1.25732 0.72339,-1.27431 0.667871,-1.28364 0.611717,-1.28796 0.555412,-1.28955 0.499084,-1.28996 0.442754,-1.29 0.386423,-1.29 0.330093,-1.29 0.330093,-1.196 0.74106,-1.17047 " style="fill:#eee;stroke:darkgrey;stroke-width:0.005"/>
				<polyline points="0.777032,-1.25732 0.72339,-1.27431 0.667871,-1.28364 0.611717,-1.28796 0.555412,-1.28955 0.499084,-1.28996 0.442754,-1.29 0.386423,-1.29 0.330093,-1.29 " style="fill:#eee;stroke:black;stroke-width:0.010"/>
				<polygon points="0.75136,-1.2476 0.729777,-1.19549 0.722091,-1.2292 " style="fill:#ccc;stroke-width:0"/>
				<text x="0.55473608912402517" y="-1.2284591967082417" text-anchor="middle" font-size="0.040000000000000001" style="fill:darkgrey">16</text>
			</g>
			<g>
				<polygon id="Seg_B_18" points="0.330093,-1.29 0.273763,-1.29 0.217432,-1.29 0.161102,-1.28996 0.104774,-1.28955 0.0484688,-1.28796 -0.00768485,-1.28364 -0.0632042,-1.27431 -0.116846,-1.25732 -0.0808742,-1.17047 0.330093,-1.196 " style="fill:#eee;stroke:darkgrey;stroke-width:0.005"/>
				<polyline points="0.330093,-1.29 0.273763,-1.29 0.217432,-1.29 0.161102,-1.28996 0.104774,-1.28955 0.0484688,-1.28796 -0.00768485,-1.28364 -0.0632042,-1.27431 -0.116846,-1.25732 " style="fill:#eee;stroke:black;stroke-width:0.010"/>
				<polygon points="0.310093,-1.2712 0.310093,-1.2148 0.290093,-1.243 " style="fill:#ccc;stroke-width:0"/>
				<text x="0.10544991087597544" y="-1.2284591967082421" text-anchor="middle" font-size="0.040000000000000001" style="fill:darkgrey">17</text>
			</g>
			<g>
				<polygon id="Seg_B_19" points="-0.116846,-1.25732 -0.143955,-1.2445 -0.169677,-1.22908 -0.193763,-1.21121 -0.215983,-1.19108 -0.236122,-1.16886 -0.253985,-1.14477 -0.269402,-1.11905 -0.282224,-1.09194 -0.177384,-1.04851 -0.0734206,-1.15248 " style="fill:#eee;stroke:darkgrey;stroke-width:0.005"/>
				<polyline points="-0.116846,-1.25732 -0.143955,-1.2445 -0.169677,-1.22908 -0.193763,-1.21121 -0.215983,-1.19108 -0.236122,-1.16886 -0.253985,-1.14477 -0.269402,-1.11905 -0.282224,-1.09194 " style="fill:#eee;stroke:black;stroke-width:0.010"/>
				<polygon points="-0.126639,-1.2287 -0.100583,-1.16579 -0.132089,-1.18959 " style="fill:#ccc;stroke-width:0"/>
				<text x="-0.17586265327409223" y="-1.1339340674240932" text-anchor="middle" font-size="0.040000000000000001" style="fill:darkgrey">18</text>
			</g>
			<g>
				<polygon id="Seg_B_20" points="-0.282224,-1.09194 -0.292326,-1.0637 -0.299613,-1.03462 -0.304013,-1.00495 -0.305484,-0.975 -0.304013,-0.945048 -0.299613,-0.915385 -0.292326,-0.886296 -0.282224,-0.858061 -0.177384,-0.901486 -0.177384,-1.04851 " style="fill:#eee;stroke:darkgrey;stroke-width:0.005"/>
				<polyline points="-0.282224,-1.09194 -0.292326,-1.0637 -0.299613,-1.03462 -0.304013,-1.00495 -0.305484,-0.975 -0.304013,-0.945048 -0.299613,-0.915385 -0.292326,-0.886296 -0.282224,-0.858061 " style="fill:#eee;stroke:black;stroke-width:0.010"/>
				<polygon points="-0.26891,-1.06478 -0.206006,-1.03872 -0.245111,-1.03327 " style="fill:#ccc;stroke-width:0"/>
				<text x="-0.24874587123643932" y="-0.95797841415000107" text-anchor="middle" font-size="0.040000000000000001" style="fill:darkgrey">19</text>
			</g>
			<g>
				<polygon id="Seg_B_21" points="-0.282224,-0.858061 -0.269402,-0.830952 -0.253985,-0.80523 -0.236122,-0.781144 -0.215983,-0.758924 -0.193763,-0.738785 -0.169677,-0.720922 -0.143955,-0.705505 -0.116846,-0.692683 -0.0734206,-0.797523 -0.177384,-0.901486 " style="fill:#eee;stroke:darkgrey;stroke-width:0.005"/>
				<polyline points="-0.282224,-0.858061 -0.269402,-0.830952 -0.253985,-0.80523 -0.236122,-0.781144 -0.215983,-0.758924 -0.193763,-0.738785 -0.169677,-0.720922 -0.143955,-0.705505 -0.116846,-0.692683 " style="fill:#eee;stroke:black;stroke-width:0.010"/>
				<polygon points="-0.253602,-0.848268 -0.190699,-0.874324 -0.214497,-0.842818 " style="fill:#ccc;stroke-width:0"/>
				<text x="-0.17586265327409259" y="-0.78202276087590872" text-anchor="middle" font-size="0.040000000000000001" style="fill:darkgrey">20</text>
			</g>
			<g>
				<polygon id="Seg_B_22" points="-0.116846,-0.692683 -0.0632042,-0.675694 -0.00768485,-0.666365 0.0484688,-0.662045 0.104774,-0.660446 0.161102,-0.660042 0.217432,-0.66 0.273763,-0.66 0.330093,-0.66 0.330093,-0.754 -0.0808742,-0.779528 " style="fill:#eee;stroke:darkgrey;stroke-width:0.005"/>
				<polyline points="-0.116846,-0.692683 -0.0632042,-0.675694 -0.00768485,-0.666365 0.0484688,-0.662045 0.104774,-0.660446 0.161102,-0.660042 0.217432,-0.66 0.273763,-0.66 0.330093,-0.66 " style="fill:#eee;stroke:black;stroke-width:0.010"/>
				<polygon points="-0.0911744,-0.702398 -0.0695911,-0.754505 -0.0619051,-0.720798 " style="fill:#ccc;stroke-width:0"/>
				<text x="0.10544991087597474" y="-0.69334080329175951" text-anchor="middle" font-size="0.040000000000000001" style="fill:darkgrey">21</text>
			</g>
			<g id="segtable">
				<g>
					<rect x="-0.53557749073643934" y="0.25000000000000006" width="0.66000000000000003" height="1.4700000000000002" style="fill:none;stroke:grey;stroke-width:0.005"/>
				</g>
				<g>
					<rect x="-0.53557749073643934" y="0.32000000000000006" width="0.66000000000000003" height="0.070000000000000007" style="fill:white"/>
					<text x="-0.43557749073643937" y="0.36500000000000005" text-anchor="middle" font-size="0.040000000000000001" style="fill:grey">0</text>
					<text x="-0.20557749073643936" y="0.36500000000000005" text-anchor="middle" font-size="0.040000000000000001" style="fill:grey">Seg_A_1</text>
					<text x="0.024422509263560654" y="0.36500000000000005" text-anchor="middle" font-size="0.040000000000000001" style="fill:grey"> NN 1</text>
				</g>
				<g>
					<rect x="-0.53557749073643934" y="0.39000000000000007" width="0.66000000000000003" height="0.070000000000000007" style="fill:whitesmoke"/>
					<text x="-0.43557749073643937" y="0.43500000000000005" text-anchor="middle" font-size="0.040000000000000001" style="fill:grey">1</text>
					<text x="-0.20557749073643936" y="0.43500000000000005" text-anchor="middle" font-size="0.040000000000000001" style="fill:grey">Seg_A_2</text>
					<text x="0.024422509263560654" y="0.43500000000000005" text-anchor="middle" font-size="0.040000000000000001" style="fill:grey"> NN 2</text>
				</g>
				<g>
					<rect x="-0.53557749073643934" y="0.46000000000000008" width="0.66000000000000003" height="0.070000000000000007" style="fill:white"/>
					<text x="-0.43557749073643937" y="0.50500000000000012" text-anchor="middle" font-size="0.040000000000000001" style="fill:grey">2</text>
					<text x="-0.20557749073643936" y="0.50500000000000012" text-anchor="middle" font-size="0.040000000000000001" style="fill:grey">Seg_A_3</text>
					<text x="0.024422509263560654" y="0.50500000000000012" text-anchor="middle" font-size="0.040000000000000001" style="fill:grey"> NN 3</text>
				</g>
				<g>
					<rect x="-0.53557749073643934" y="0.53000000000000003" width="0.66000000000000003" height="0.070000000000000007" style="fill:whitesmoke"/>
					<text x="-0.43557749073643937" y="0.57500000000000007" text-anchor="middle" font-size="0.040000000000000001" style="fill:grey">3</text>
					<text x="-0.20557749073643936" y="0.57500000000000007" text-anchor="middle" font-size="0.040000000000000001" style="fill:grey">Seg_A_4</text>
					<text x="0.024422509263560654" y="0.57500000000000007" text-anchor="middle" font-size="0.040000000000000001" style="fill:grey"> NN 4</text>
				</g>
				<g>
					<rect x="-0.53557749073643934" y="0.60000000000000009" width="0.66000000000000003" height="0.070000000000000007" style="fill:white"/>
					<text x="-0.43557749073643937" y="0.64500000000000002" text-anchor="middle" font-size="0.040000000000000001" style="fill:grey">4</text>
					<text x="-0.20557749073643936" y="0.64500000000000002" text-anchor="middle" font-size="0.040000000000000001" style="fill:grey">Seg_A_5</text>
					<text x="0.024422509263560654" y="0.64500000000000002" text-anchor="middle" font-size="0.040000000000000001" style="fill:grey"> NN 5</text>
				</g>
				<g>
					<rect x="-0.53557749073643934" y="0.67000000000000015" width="0.66000000000000003" height="0.070000000000000007" style="fill:whitesmoke"/>
					<text x="-0.43557749073643937" y="0.71500000000000008" text-anchor="middle" font-size="0.040000000000000001" style="fill:grey">5</text>
					<text x="-0.20557749073643936" y="0.71500000000000008" text-anchor="middle" font-size="0.040000000000000001" style="fill:grey">Seg_A_6</text>
					<text x="0.024422509263560654" y="0.71500000000000008" text-anchor="middle" font-size="0.040000000000000001" style="fill:grey"> NN 6</text>
				</g>
				<g>
					<rect x="-0.53557749073643934" y="0.7400000000000001" width="0.66000000000000003" height="0.070000000000000007" style="fill:white"/>
					<text x="-0.43557749073643937" y="0.78500000000000014" text-anchor="middle" font-size="0.040000000000000001" style="fill:grey">6</text>
					<text x="-0.20557749073643936" y="0.78500000000000014" text-anchor="middle" font-size="0.040000000000000001" style="fill:grey">Seg_A_7</text>
					<text x="0.024422509263560654" y="0.78500000000000014" text-anchor="middle" font-size="0.040000000000000001" style="fill:grey"> NN 7</text>
				</g>
				<g>
					<rect x="-0.53557749073643934" y="0.81000000000000005" width="0.66000000000000003" height="0.070000000000000007" style="fill:whitesmoke"/>
					<text x="-0.43557749073643937" y="0.85500000000000009" text-anchor="middle" font-size="0.040000000000000001" style="fill:grey">7</text>
					<text x="-0.20557749073643936" y="0.85500000000000009" text-anchor="middle" font-size="0.040000000000000001" style="fill:grey">Seg_A_8</text>
					<text x="0.024422509263560654" y="0.85500000000000009" text-anchor="middle" font-size="0.040000000000000001" style="fill:grey"> NN 8</text>
				</g>
				<g>
					<rect x="-0.53557749073643934" y="0.88000000000000012" width="0.66000000000000003" height="0.070000000000000007" style="fill:white"/>
					<text x="-0.43557749073643937" y="0.92500000000000016" text-anchor="middle" font-size="0.040000000000000001" style="fill:grey">8</text>
					<text x="-0.20557749073643936" y="0.92500000000000016" text-anchor="middle" font-size="0.040000000000000001" style="fill:grey">Seg_A_9</text>
					<text x="0.024422509263560654" y="0.92500000000000016" text-anchor="middle" font-size="0.040000000000000001" style="fill:grey"> NN 9</text>
				</g>
				<g>
					<rect x="-0.53557749073643934" y="0.95000000000000018" width="0.66000000000000003" height="0.070000000000000007" style="fill:whitesmoke"/>
					<text x="-0.43557749073643937" y="0.99500000000000011" text-anchor="middle" font-size="0.040000000000000001" style="fill:grey">9</text>
					<text x="-0.20557749073643936" y="0.99500000000000011" text-anchor="middle" font-size="0.040000000000000001" style="fill:grey">Seg_A_10</text>
					<text x="0.024422509263560654" y="0.99500000000000011" text-anchor="middle" font-size="0.040000000000000001" style="fill:grey"> NN 10</text>
				</g>
				<g>
					<rect x="-0.53557749073643934" y="1.02" width="0.66000000000000003" height="0.070000000000000007" style="fill:white"/>
					<text x="-0.43557749073643937" y="1.0649999999999999" text-anchor="middle" font-size="0.040000000000000001" style="fill:grey">10</text>
					<text x="-0.20557749073643936" y="1.0649999999999999" text-anchor="middle" font-size="0.040000000000000001" style="fill:grey">Seg_A_11</text>
					<text x="0.024422509263560654" y="1.0649999999999999" text-anchor="middle" font-size="0.040000000000000001" style="fill:grey"> NN 11</text>
				</g>
				<g>
					<rect x="-0.53557749073643934" y="1.0900000000000001" width="0.66000000000000003" height="0.070000000000000007" style="fill:whitesmoke"/>
					<text x="-0.43557749073643937" y="1.1350000000000002" text-anchor="middle" font-size="0.040000000000000001" style="fill:grey">11</text>
					<text x="-0.20557749073643936" y="1.1350000000000002" text-anchor="middle" font-size="0.040000000000000001" style="fill:grey">Seg_A_12</text>
					<text x="0.024422509263560654" y="1.1350000000000002" text-anchor="middle" font-size="0.040000000000000001" style="fill:grey"> NN 12</text>
				</g>
				<g>
					<rect x="-0.53557749073643934" y="1.1600000000000001" width="0.66000000000000003" height="0.070000000000000007" style="fill:white"/>
					<text x="-0.43557749073643937" y="1.2050000000000001" text-anchor="middle" font-size="0.040000000000000001" style="fill:grey">12</text>
					<text x="-0.20557749073643936" y="1.2050000000000001" text-anchor="middle" font-size="0.040000000000000001" style="fill:grey">Seg_B_13</text>
					<text x="0.024422509263560654" y="1.2050000000000001" text-anchor="middle" font-size="0.040000000000000001" style="fill:grey"> NN 13</text>
				</g>
				<g>
					<rect x="-0.53557749073643934" y="1.2300000000000002" width="0.66000000000000003" height="0.070000000000000007" style="fill:whitesmoke"/>
					<text x="-0.43557749073643937" y="1.2750000000000001" text-anchor="middle" font-size="0.040000000000000001" style="fill:grey">13</text>
					<text x="-0.20557749073643936" y="1.2750000000000001" text-anchor="middle" font-size="0.040000000000000001" style="fill:grey">Seg_B_14</text>
					<text x="0.024422509263560654" y="1.2750000000000001" text-anchor="middle" font-size="0.040000000000000001" style="fill:grey"> NN 14</text>
				</g>
				<g>
					<rect x="-0.53557749073643934" y="1.3" width="0.66000000000000003" height="0.070000000000000007" style="fill:white"/>
					<text x="-0.43557749073643937" y="1.3450000000000002" text-anchor="middle" font-size="0.040000000000000001" style="fill:grey">14</text>
					<text x="-0.20557749073643936" y="1.3450000000000002" text-anchor="middle" font-size="0.040000000000000001" style="fill:grey">Seg_B_15</text>
					<text x="0.024422509263560654" y="1.3450000000000002" text-anchor="middle" font-size="0.040000000000000001" style="fill:grey"> NN 15</text>
				</g>
				<g>
					<rect x="-0.53557749073643934" y="1.3700000000000001" width="0.66000000000000003" height="0.070000000000000007" style="fill:whitesmoke"/>
					<text x="-0.43557749073643937" y="1.415" text-anchor="middle" font-size="0.040000000000000001" style="fill:grey">15</text>
					<text x="-0.20557749073643936" y="1.415" text-anchor="middle" font-size="0.040000000000000001" style="fill:grey">Seg_B_16</text>
					<text x="0.024422509263560654" y="1.415" text-anchor="middle" font-size="0.040000000000000001" style="fill:grey"> NN 16</text>
				</g>
				<g>
					<rect x="-0.53557749073643934" y="1.4400000000000002" width="0.66000000000000003" height="0.070000000000000007" style="fill:white"/>
					<text x="-0.43557749073643937" y="1.4850000000000003" text-anchor="middle" font-size="0.040000000000000001" style="fill:grey">16</text>
					<text x="-0.20557749073643936" y="1.4850000000000003" text-anchor="middle" font-size="0.040000000000000001" style="fill:grey">Seg_B_17</text>
					<text x="0.024422509263560654" y="1.4850000000000003" text-anchor="middle" font-size="0.040000000000000001" style="fill:grey"> NN 17</text>
				</g>
				<g>
					<rect x="-0.53557749073643934" y="1.5100000000000002" width="0.66000000000000003" height="0.070000000000000007" style="fill:whitesmoke"/>
					<text x="-0.43557749073643937" y="1.5550000000000002" text-anchor="middle" font-size="0.040000000000000001" style="fill:grey">17</text>
					<text x="-0.20557749073643936" y="1.5550000000000002" text-anchor="middle" font-size="0.040000000000000001" style="fill:grey">Seg_B_18</text>
					<text x="0.024422509263560654" y="1.5550000000000002" text-anchor="middle" font-size="0.040000000000000001" style="fill:grey"> NN 18</text>
				</g>
				<g>
					<rect x="-0.53557749073643934" y="1.5800000000000001" width="0.66000000000000003" height="0.070000000000000007" style="fill:white"/>
					<text x="-0.43557749073643937" y="1.625" text-anchor="middle" font-size="0.040000000000000001" style="fill:grey">18</text>
					<text x="-0.20557749073643936" y="1.625" text-anchor="middle" font-size="0.040000000000000001" style="fill:grey">Seg_B_19</text>
					<text x="0.024422509263560654" y="1.625" text-anchor="middle" font-size="0.040000000000000001" style="fill:grey"> NN 19</text>
				</g>
				<g>
					<rect x="-0.53557749073643934" y="1.6500000000000001" width="0.66000000000000003" height="0.070000000000000007" style="fill:whitesmoke"/>
					<text x="-0.43557749073643937" y="1.6950000000000003" text-anchor="middle" font-size="0.040000000000000001" style="fill:grey">19</text>
					<text x="-0.20557749073643936" y="1.6950000000000003" text-anchor="middle" font-size="0.040000000000000001" style="fill:grey">Seg_B_20</text>
					<text x="0.024422509263560654" y="1.6950000000000003" text-anchor="middle" font-size="0.040000000000000001" style="fill:grey"> NN 20</text>
				</g>
				<g>
					<rect x="-0.53557749073643934" y="0.25000000000000006" width="0.66000000000000003" height="0.070000000000000007" style="fill:whitesmoke;stroke:grey;stroke-width:0.005"/>
					<text x="-0.43557749073643937" y="0.29500000000000004" text-anchor="middle" font-size="0.040000000000000001" font-weight="bold" style="fill:grey">Index</text>
					<text x="-0.20557749073643936" y="0.29500000000000004" text-anchor="middle" font-size="0.040000000000000001" font-weight="bold" style="fill:grey">Name</text>
					<text x="0.024422509263560654" y="0.29500000000000004" text-anchor="middle" font-size="0.040000000000000001" font-weight="bold" style="fill:grey">Node no.</text>
				</g>
				<g>
					<rect x="-0.53557749073643934" y="0.18000000000000005" width="0.66000000000000003" height="0.070000000000000007" style="fill:grey;stroke:grey;stroke-width:0.005"/>
					<text x="-0.20557749073643933" y="0.23500000000000004" text-anchor="middle" font-size="0.050000000000000003" font-weight="bold" style="fill:white"> Segments</text>
				</g>
			</g>
			<g>
				<g>
					<rect x="0.17442250926356068" y="0.25000000000000006" width="0.66000000000000003" height="0.21000000000000002" style="fill:none;stroke:grey;stroke-width:0.005"/>
				</g>
				<g>
					<rect x="0.17442250926356068" y="0.32000000000000006" width="0.66000000000000003" height="0.070000000000000007" style="fill:white"/>
					<text x="0.27442250926356071" y="0.36500000000000005" text-anchor="middle" font-size="0.040000000000000001" style="fill:grey">20</text>
					<text x="0.50442250926356069" y="0.36500000000000005" text-anchor="middle" font-size="0.040000000000000001" style="fill:grey">Seg_B_21</text>
					<text x="0.73442250926356079" y="0.36500000000000005" text-anchor="middle" font-size="0.040000000000000001" style="fill:grey"> NN 21</text>
				</g>
				<g>
					<rect x="0.17442250926356068" y="0.39000000000000007" width="0.66000000000000003" height="0.070000000000000007" style="fill:whitesmoke"/>
					<text x="0.27442250926356071" y="0.43500000000000005" text-anchor="middle" font-size="0.040000000000000001" style="fill:grey">21</text>
					<text x="0.50442250926356069" y="0.43500000000000005" text-anchor="middle" font-size="0.040000000000000001" style="fill:grey">Seg_B_22</text>
					<text x="0.73442250926356079" y="0.43500000000000005" text-anchor="middle" font-size="0.040000000000000001" style="fill:grey"> NN 22</text>
				</g>
				<g>
					<rect x="0.17442250926356068" y="0.25000000000000006" width="0.66000000000000003" height="0.070000000000000007" style="fill:whitesmoke;stroke:grey;stroke-width:0.005"/>
					<text x="0.27442250926356071" y="0.29500000000000004" text-anchor="middle" font-size="0.040000000000000001" font-weight="bold" style="fill:grey">Index</text>
					<text x="0.50442250926356069" y="0.29500000000000004" text-anchor="middle" font-size="0.040000000000000001" font-weight="bold" style="fill:grey">Name</text>
					<text x="0.73442250926356079" y="0.29500000000000004" text-anchor="middle" font-size="0.040000000000000001" font-weight="bold" style="fill:grey">Node no.</text>
				</g>
				<g>
					<rect x="0.17442250926356068" y="0.18000000000000005" width="0.66000000000000003" height="0.070000000000000007" style="fill:grey;stroke:grey;stroke-width:0.005"/>
					<text x="0.50442250926356069" y="0.23500000000000004" text-anchor="middle" font-size="0.050000000000000003" font-weight="bold" style="fill:white"> Segments</text>
				</g>
			</g>
		</g>
		<g id="workspace">
			<g>
				<polyline id="edge" points="0,0.015 0.0253846,0.015 0.0507692,0.015 0.0761538,0.015 0.101538,0.015 0.126923,0.015 0.152308,0.015 0.177692,0.015 0.203077,0.015 0.228462,0.015 0.253846,0.015 0.279231,0.015 0.304615,0.015 0.33,0.015 0.355385,0.015 0.380769,0.015 0.406154,0.015 0.431538,0.015 0.456923,0.015 0.482308,0.015 0.507692,0.015 0.533077,0.015 0.558462,0.015 0.583846,0.015 0.609231,0.015 0.634615,0.015 0.66,0.015 " stroke-width="0.0050000000000000001" style="stroke:pink;fill:none"/>
				<rect id="vertex" x="-0.0050000000000002291" y="0.0099999999999999742" width="0.01" height="0.01" style="fill:red;stroke-width:0"/>
				<rect id="vertex" x="0.65500000000000003" y="0.0099999999999999985" width="0.01" height="0.01" style="fill:red;stroke-width:0"/>
			</g>
			<g>
				<polyline id="edge" points="0.66,0.015 0.68625,0.015 0.7125,0.015 0.73875,0.015 0.765,0.015 " stroke-width="0.0050000000000000001" style="stroke:pink;fill:none"/>
				<rect id="vertex" x="0.65500000000000003" y="0.0099999999999999985" width="0.01" height="0.01" style="fill:red;stroke-width:0"/>
				<rect id="vertex" x="0.76000000000000001" y="0.0099999999999999985" width="0.01" height="0.01" style="fill:red;stroke-width:0"/>
			</g>
			<g>
				<polyline id="edge" points="0.765,0.015 0.791592,0.014998 0.818197,0.0149785 0.844829,0.0149062 0.8715,0.0147224 0.898227,0.0143393 0.925025,0.0136353 0.951905,0.0124499 0.978868,0.0105791 1.0059,0.0077732 1.03293,0.00374117 1.05988,-0.00183544 1.08654,-0.00927084 1.11268,-0.018825 " stroke-width="0.0050000000000000001" style="stroke:pink;fill:none"/>
				<rect id="vertex" x="0.76000000000000001" y="0.0099999999999999985" width="0.01" height="0.01" style="fill:red;stroke-width:0"/>
				<rect id="vertex" x="1.1076796944940084" y="-0.02382501772477737" width="0.01" height="0.01" style="fill:red;stroke-width:0"/>
			</g>
			<g>
				<polyline id="edge" points="1.11268,-0.018825 1.13803,-0.0306443 1.16225,-0.0446277 1.18516,-0.0606688 1.20658,-0.0786455 1.22635,-0.098421 1.24433,-0.119845 1.26037,-0.142754 1.27436,-0.166974 1.28617,-0.19232 " stroke-width="0.0050000000000000001" style="stroke:pink;fill:none"/>
				<rect id="vertex" x="1.1076796944940084" y="-0.02382501772477737" width="0.01" height="0.01" style="fill:red;stroke-width:0"/>
				<rect id="vertex" x="1.281174982275223" y="-0.19732030550599172" width="0.01" height="0.01" style="fill:red;stroke-width:0"/>
			</g>
			<g>
				<polyline id="edge" points="1.28617,-0.19232 1.29574,-0.2186 1.30298,-0.245614 1.30783,-0.273156 1.31027,-0.301017 1.31027,-0.328983 1.30783,-0.356844 1.30298,-0.384386 1.29574,-0.4114 1.28617,-0.43768 " stroke-width="0.0050000000000000001" style="stroke:pink;fill:none"/>
				<rect id="vertex" x="1.281174982275223" y="-0.19732030550599172" width="0.01" height="0.01" style="fill:red;stroke-width:0"/>
				<rect id="vertex" x="1.281174982275223" y="-0.44267969449400824" width="0.01" height="0.01" style="fill:red;stroke-width:0"/>
			</g>
			<g>
				<polyline id="edge" points="1.28617,-0.43768 1.27436,-0.463026 1.26037,-0.487246 1.24433,-0.510155 1.22635,-0.531579 1.20658,-0.551355 1.18516,-0.569331 1.16225,-0.585372 1.13803,-0.599356 1.11268,-0.611175 " stroke-width="0.0050000000000000001" style="stroke:pink;fill:none"/>
				<rect id="vertex" x="1.281174982275223" y="-0.44267969449400824" width="0.01" height="0.01" style="fill:red;stroke-width:0"/>
				<rect id="vertex" x="1.1076796944940086" y="-0.61617498227522272" width="0.01" height="0.01" style="fill:red;stroke-width:0"/>
			</g>
			<g>
				<polyline id="edge" points="1.11268,-0.611175 1.08654,-0.620729 1.05988,-0.628165 1.03293,-0.633741 1.0059,-0.637773 0.978868,-0.640579 0.951905,-0.64245 0.925025,-0.643635 0.898227,-0.644339 0.8715,-0.644722 0.844829,-0.644906 0.818197,-0.644978 0.791592,-0.644998 0.765,-0.645 " stroke-width="0.0050000000000000001" style="stroke:pink;fill:none"/>
				<rect id="vertex" x="1.1076796944940086" y="-0.61617498227522272" width="0.01" height="0.01" style="fill:red;stroke-width:0"/>
				<rect id="vertex" x="0.76000000000000034" y="-0.65000000000000024" width="0.01" height="0.01" style="fill:red;stroke-width:0"/>
			</g>
			<g>
				<polyline id="edge" points="0.765,-0.645 0.73875,-0.645 0.7125,-0.645 0.68625,-0.645 0.66,-0.645 " stroke-width="0.0050000000000000001" style="stroke:pink;fill:none"/>
				<rect id="vertex" x="0.76000000000000034" y="-0.65000000000000024" width="0.01" height="0.01" style="fill:red;stroke-width:0"/>
				<rect id="vertex" x="0.65500000000000025" y="-0.65000000000000024" width="0.01" height="0.01" style="fill:red;stroke-width:0"/>
			</g>
			<g>
				<polyline id="edge" points="6.66134e-18,-0.645 -0.02625,-0.645 -0.0525,-0.645 -0.07875,-0.645 -0.105,-0.645 " stroke-width="0.0050000000000000001" style="stroke:pink;fill:none"/>
				<rect id="vertex" x="-0.0050000000000000105" y="-0.65000000000000058" width="0.01" height="0.01" style="fill:red;stroke-width:0"/>
				<rect id="vertex" x="-0.11000000000000003" y="-0.65000000000000058" width="0.01" height="0.01" style="fill:red;stroke-width:0"/>
			</g>
			<g>
				<polyline id="edge" points="-0.105,-0.645 -0.131592,-0.644998 -0.158197,-0.644978 -0.184829,-0.644906 -0.2115,-0.644722 -0.238227,-0.644339 -0.265025,-0.643635 -0.291905,-0.64245 -0.318868,-0.640579 -0.345896,-0.637773 -0.372934,-0.633741 -0.399876,-0.628165 -0.426543,-0.620729 -0.45268,-0.611175 " stroke-width="0.0050000000000000001" style="stroke:pink;fill:none"/>
				<rect id="vertex" x="-0.11000000000000003" y="-0.65000000000000058" width="0.01" height="0.01" style="fill:red;stroke-width:0"/>
				<rect id="vertex" x="-0.45767969449400842" y="-0.61617498227522338" width="0.01" height="0.01" style="fill:red;stroke-width:0"/>
			</g>
			<g>
				<polyline id="edge" points="-0.45268,-0.611175 -0.478026,-0.599356 -0.502246,-0.585372 -0.525155,-0.569331 -0.546579,-0.551355 -0.566355,-0.531579 -0.584331,-0.510155 -0.600372,-0.487246 -0.614356,-0.463026 -0.626175,-0.43768 " stroke-width="0.0050000000000000001" style="stroke:pink;fill:none"/>
				<rect id="vertex" x="-0.45767969449400842" y="-0.61617498227522338" width="0.01" height="0.01" style="fill:red;stroke-width:0"/>
				<rect id="vertex" x="-0.63117498227522295" y="-0.44267969449400907" width="0.01" height="0.01" style="fill:red;stroke-width:0"/>
			</g>
			<g>
				<polyline id="edge" points="-0.626175,-0.43768 -0.63574,-0.4114 -0.642979,-0.384386 -0.647835,-0.356844 -0.650272,-0.328983 -0.650272,-0.301017 -0.647835,-0.273156 -0.642979,-0.245614 -0.63574,-0.2186 -0.626175,-0.19232 " stroke-width="0.0050000000000000001" style="stroke:pink;fill:none"/>
				<rect id="vertex" x="-0.63117498227522295" y="-0.44267969449400907" width="0.01" height="0.01" style="fill:red;stroke-width:0"/>
				<rect id="vertex" x="-0.63117498227522317" y="-0.19732030550599247" width="0.01" height="0.01" style="fill:red;stroke-width:0"/>
			</g>
			<g>
				<polyline id="edge" points="-0.626175,-0.19232 -0.614356,-0.166974 -0.600372,-0.142754 -0.584331,-0.119845 -0.566355,-0.098421 -0.546579,-0.0786455 -0.525155,-0.0606688 -0.502246,-0.0446277 -0.478026,-0.0306443 -0.45268,-0.018825 " stroke-width="0.0050000000000000001" style="stroke:pink;fill:none"/>
				<rect id="vertex" x="-0.63117498227522317" y="-0.19732030550599247" width="0.01" height="0.01" style="fill:red;stroke-width:0"/>
				<rect id="vertex" x="-0.4576796944940088" y="-0.023825017724777863" width="0.01" height="0.01" style="fill:red;stroke-width:0"/>
			</g>
			<g>
				<polyline id="edge" points="-0.45268,-0.018825 -0.426543,-0.00927084 -0.399876,-0.00183544 -0.372934,0.00374117 -0.345896,0.0077732 -0.318868,0.0105791 -0.291905,0.0124499 -0.265025,0.0136353 -0.238227,0.0143393 -0.2115,0.0147224 -0.184829,0.0149062 -0.158197,0.0149785 -0.131592,0.014998 -0.105,0.015 " stroke-width="0.0050000000000000001" style="stroke:pink;fill:none"/>
				<rect id="vertex" x="-0.4576796944940088" y="-0.023825017724777863" width="0.01" height="0.01" style="fill:red;stroke-width:0"/>
				<rect id="vertex" x="-0.1100000000000005" y="0.0099999999999998423" width="0.01" height="0.01" style="fill:red;stroke-width:0"/>
			</g>
			<g>
				<polyline id="edge" points="-4.58416e-16,0.015 -0.02625,0.015 -0.0525,0.015 -0.07875,0.015 -0.105,0.015 " stroke-width="0.0050000000000000001" style="stroke:pink;fill:none"/>
				<rect id="vertex" x="-0.0050000000000002291" y="0.0099999999999999742" width="0.01" height="0.01" style="fill:red;stroke-width:0"/>
				<rect id="vertex" x="-0.1100000000000005" y="0.0099999999999998423" width="0.01" height="0.01" style="fill:red;stroke-width:0"/>
			</g>
			<g>
				<polyline id="edge" points="0.330093,-0.645 0.356343,-0.645 0.382593,-0.645 0.408843,-0.645 0.435093,-0.645 " stroke-width="0.014999999999999999" style="stroke:pink;fill:none"/>
				<rect id="vertex" x="0.32509299999999991" y="-0.65000000000000036" width="0.01" height="0.01" style="fill:red;stroke-width:0"/>
				<rect id="vertex" x="0.430093" y="-0.65000000000000047" width="0.01" height="0.01" style="fill:red;stroke-width:0"/>
			</g>
			<g>
				<polyline id="edge" points="0.435093,-0.645 0.461685,-0.645002 0.48829,-0.645022 0.514922,-0.645094 0.541593,-0.645278 0.56832,-0.645661 0.595118,-0.646365 0.621998,-0.64755 0.648961,-0.649421 0.675989,-0.652227 0.703027,-0.656259 0.729969,-0.661835 0.756636,-0.669271 0.782773,-0.678825 " stroke-width="0.0050000000000000001" style="stroke:pink;fill:none"/>
				<rect id="vertex" x="0.430093" y="-0.65000000000000047" width="0.01" height="0.01" style="fill:red;stroke-width:0"/>
				<rect id="vertex" x="0.77777269449400843" y="-0.68382501772477755" width="0.01" height="0.01" style="fill:red;stroke-width:0"/>
			</g>
			<g>
				<polyline id="edge" points="0.66,-0.645 0.631887,-0.645 0.603773,-0.645 0.57566,-0.645 0.547547,-0.645 0.519433,-0.645 0.49132,-0.645 0.463206,-0.645 0.435093,-0.645 " stroke-width="0.0050000000000000001" style="stroke:pink;fill:none"/>
				<rect id="vertex" x="0.65500000000000025" y="-0.65000000000000024" width="0.01" height="0.01" style="fill:red;stroke-width:0"/>
				<rect id="vertex" x="0.430093" y="-0.65000000000000047" width="0.01" height="0.01" style="fill:red;stroke-width:0"/>
			</g>
			<g>
				<polyline id="edge" points="0.782773,-0.678825 0.808119,-0.690644 0.832339,-0.704628 0.855248,-0.720669 0.876672,-0.738645 0.896448,-0.758421 0.914424,-0.779845 0.930465,-0.802754 0.944449,-0.826974 0.956268,-0.85232 " stroke-width="0.0050000000000000001" style="stroke:pink;fill:none"/>
				<rect id="vertex" x="0.77777269449400843" y="-0.68382501772477755" width="0.01" height="0.01" style="fill:red;stroke-width:0"/>
				<rect id="vertex" x="0.95126798227522302" y="-0.85732030550599192" width="0.01" height="0.01" style="fill:red;stroke-width:0"/>
			</g>
			<g>
				<polyline id="edge" points="0.956268,-0.85232 0.965833,-0.8786 0.973072,-0.905614 0.977928,-0.933156 0.980365,-0.961017 0.980365,-0.988983 0.977928,-1.01684 0.973072,-1.04439 0.965833,-1.0714 0.956268,-1.09768 " stroke-width="0.0050000000000000001" style="stroke:pink;fill:none"/>
				<rect id="vertex" x="0.95126798227522302" y="-0.85732030550599192" width="0.01" height="0.01" style="fill:red;stroke-width:0"/>
				<rect id="vertex" x="0.95126798227522302" y="-1.1026796944940083" width="0.01" height="0.01" style="fill:red;stroke-width:0"/>
			</g>
			<g>
				<polyline id="edge" points="0.956268,-1.09768 0.944449,-1.12303 0.930465,-1.14725 0.914424,-1.17016 0.896448,-1.19158 0.876672,-1.21135 0.855248,-1.22933 0.832339,-1.24537 0.808119,-1.25936 0.782773,-1.27117 " stroke-width="0.0050000000000000001" style="stroke:pink;fill:none"/>
				<rect id="vertex" x="0.95126798227522302" y="-1.1026796944940083" width="0.01" height="0.01" style="fill:red;stroke-width:0"/>
				<rect id="vertex" x="0.77777269449400876" y="-1.2761749822752231" width="0.01" height="0.01" style="fill:red;stroke-width:0"/>
			</g>
			<g>
				<polyline id="edge" points="0.782773,-1.27117 0.756636,-1.28073 0.729969,-1.28816 0.703027,-1.29374 0.675989,-1.29777 0.648961,-1.30058 0.621998,-1.30245 0.595118,-1.30364 0.56832,-1.30434 0.541593,-1.30472 0.514922,-1.30491 0.48829,-1.30498 0.461685,-1.305 0.435093,-1.305 " stroke-width="0.0050000000000000001" style="stroke:pink;fill:none"/>
				<rect id="vertex" x="0.77777269449400876" y="-1.2761749822752231" width="0.01" height="0.01" style="fill:red;stroke-width:0"/>
				<rect id="vertex" x="0.43009300000000034" y="-1.3100000000000005" width="0.01" height="0.01" style="fill:red;stroke-width:0"/>
			</g>
			<g>
				<polyline id="edge" points="0.435093,-1.305 0.408843,-1.305 0.382593,-1.305 0.356343,-1.305 0.330093,-1.305 " stroke-width="0.0050000000000000001" style="stroke:pink;fill:none"/>
				<rect id="vertex" x="0.43009300000000034" y="-1.3100000000000005" width="0.01" height="0.01" style="fill:red;stroke-width:0"/>
				<rect id="vertex" x="0.32509300000000035" y="-1.3100000000000007" width="0.01" height="0.01" style="fill:red;stroke-width:0"/>
			</g>
			<g>
				<polyline id="edge" points="0.330093,-1.305 0.303843,-1.305 0.277593,-1.305 0.251343,-1.305 0.225093,-1.305 " stroke-width="0.0050000000000000001" style="stroke:pink;fill:none"/>
				<rect id="vertex" x="0.32509300000000035" y="-1.3100000000000007" width="0.01" height="0.01" style="fill:red;stroke-width:0"/>
				<rect id="vertex" x="0.22009300000000037" y="-1.3100000000000007" width="0.01" height="0.01" style="fill:red;stroke-width:0"/>
			</g>
			<g>
				<polyline id="edge" points="0.225093,-1.305 0.198501,-1.305 0.171896,-1.30498 0.145264,-1.30491 0.118593,-1.30472 0.0918659,-1.30434 0.0650682,-1.30364 0.0381885,-1.30245 0.0112253,-1.30058 -0.0158025,-1.29777 -0.0428411,-1.29374 -0.0697831,-1.28816 -0.0964498,-1.28073 -0.122587,-1.27117 " stroke-width="0.0050000000000000001" style="stroke:pink;fill:none"/>
				<rect id="vertex" x="0.22009300000000037" y="-1.3100000000000007" width="0.01" height="0.01" style="fill:red;stroke-width:0"/>
				<rect id="vertex" x="-0.12758669449400814" y="-1.2761749822752235" width="0.01" height="0.01" style="fill:red;stroke-width:0"/>
			</g>
			<g>
				<polyline id="edge" points="-0.122587,-1.27117 -0.147933,-1.25936 -0.172153,-1.24537 -0.195062,-1.22933 -0.216486,-1.21135 -0.236262,-1.19158 -0.254238,-1.17016 -0.270279,-1.14725 -0.284263,-1.12303 -0.296082,-1.09768 " stroke-width="0.0050000000000000001" style="stroke:pink;fill:none"/>
				<rect id="vertex" x="-0.12758669449400814" y="-1.2761749822752235" width="0.01" height="0.01" style="fill:red;stroke-width:0"/>
				<rect id="vertex" x="-0.30108198227522287" y="-1.1026796944940092" width="0.01" height="0.01" style="fill:red;stroke-width:0"/>
			</g>
			<g>
				<polyline id="edge" points="-0.296082,-1.09768 -0.305647,-1.0714 -0.312886,-1.04439 -0.317742,-1.01684 -0.320179,-0.988983 -0.320179,-0.961017 -0.317742,-0.933156 -0.312886,-0.905614 -0.305647,-0.8786 -0.296082,-0.85232 " stroke-width="0.0050000000000000001" style="stroke:pink;fill:none"/>
				<rect id="vertex" x="-0.30108198227522287" y="-1.1026796944940092" width="0.01" height="0.01" style="fill:red;stroke-width:0"/>
				<rect id="vertex" x="-0.30108198227522309" y="-0.85732030550599292" width="0.01" height="0.01" style="fill:red;stroke-width:0"/>
			</g>
			<g>
				<polyline id="edge" points="-0.296082,-0.85232 -0.284263,-0.826974 -0.270279,-0.802754 -0.254238,-0.779845 -0.236262,-0.758421 -0.216486,-0.738645 -0.195062,-0.720669 -0.172153,-0.704628 -0.147933,-0.690644 -0.122587,-0.678825 " stroke-width="0.0050000000000000001" style="stroke:pink;fill:none"/>
				<rect id="vertex" x="-0.30108198227522309" y="-0.85732030550599292" width="0.01" height="0.01" style="fill:red;stroke-width:0"/>
				<rect id="vertex" x="-0.12758669449400886" y="-0.68382501772477811" width="0.01" height="0.01" style="fill:red;stroke-width:0"/>
			</g>
			<g>
				<polyline id="edge" points="-0.122587,-0.678825 -0.0964498,-0.669271 -0.0697831,-0.661835 -0.0428411,-0.656259 -0.0158025,-0.652227 0.0112253,-0.649421 0.0381885,-0.64755 0.0650682,-0.646365 0.0918659,-0.645661 0.118593,-0.645278 0.145264,-0.645094 0.171896,-0.645022 0.198501,-0.645002 0.225093,-0.645 " stroke-width="0.0050000000000000001" style="stroke:pink;fill:none"/>
				<rect id="vertex" x="-0.12758669449400886" y="-0.68382501772477811" width="0.01" height="0.01" style="fill:red;stroke-width:0"/>
				<rect id="vertex" x="0.22009299999999951" y="-0.65000000000000047" width="0.01" height="0.01" style="fill:red;stroke-width:0"/>
			</g>
			<g>
				<polyline id="edge" points="0.330093,-0.645 0.303843,-0.645 0.277593,-0.645 0.251343,-0.645 0.225093,-0.645 " stroke-width="0.014999999999999999" style="stroke:pink;fill:none"/>
				<rect id="vertex" x="0.32509299999999991" y="-0.65000000000000036" width="0.01" height="0.01" style="fill:red;stroke-width:0"/>
				<rect id="vertex" x="0.22009299999999951" y="-0.65000000000000047" width="0.01" height="0.01" style="fill:red;stroke-width:0"/>
			</g>
			<g>
				<polyline id="edge" points="-2.72082e-17,-0.645 0.0250103,-0.645 0.0500207,-0.645 0.075031,-0.645 0.100041,-0.645 0.125052,-0.645 0.150062,-0.645 0.175072,-0.645 0.200083,-0.645 0.225093,-0.645 " stroke-width="0.0050000000000000001" style="stroke:pink;fill:none"/>
				<rect id="vertex" x="-0.0050000000000000105" y="-0.65000000000000058" width="0.01" height="0.01" style="fill:red;stroke-width:0"/>
				<rect id="vertex" x="0.22009299999999951" y="-0.65000000000000047" width="0.01" height="0.01" style="fill:red;stroke-width:0"/>
			</g>
		</g>
		<g id="sector">
			<polyline points="1.11268,-0.611175 1.13649,-0.600151 1.15932,-0.587217 1.18101,-0.572459 1.20142,-0.555977 1.22042,-0.537881 1.23788,-0.518292 1.25367,-0.497341 1.2677,-0.475169 1.27987,-0.451924 1.29009,-0.427762 1.29831,-0.402844 1.30446,-0.377338 1.3085,-0.351415 1.31041,-0.325247 1.31018,-0.299011 1.3078,-0.272882 1.30329,-0.247035 1.29668,-0.221644 1.28802,-0.196878 1.27736,-0.172902 1.26478,-0.149879 1.25036,-0.127962 1.23419,-0.107298 1.21639,-0.0880246 1.19707,-0.0702718 1.17636,-0.0541583 1.15441,-0.0397921 1.13135,-0.0272692 1.10735,-0.0166741 1.08265,-0.00805039 1.05752,-0.00127555 1.03216,0.00387681 1.00672,0.0076703 0.981285,0.0103701 0.955906,0.0122208 0.930601,0.0134348 0.905369,0.0141887 0.880204,0.0146246 0.855092,0.0148528 0.83002,0.0149558 0.804977,0.0149921 0.779952,0.0149997 0.754934,0.015 0.729918,0.015 0.704901,0.015 0.679885,0.015 0.654868,0.015 0.629852,0.015 0.604835,0.015 0.579819,0.015 0.554802,0.015 0.529786,0.015 0.50477,0.015 0.479753,0.015 0.454737,0.015 0.42972,0.015 0.404704,0.015 0.379687,0.015 0.354671,0.015 0.329654,0.015 0.304638,0.015 0.279621,0.015 0.254605,0.015 0.229588,0.015 0.204572,0.015 0.179555,0.015 0.154539,0.015 0.129523,0.015 0.104506,0.015 0.0794896,0.015 0.0544732,0.015 0.0294567,0.015 0.00444026,0.015 -0.0205762,0.015 -0.0455927,0.015 -0.0706091,0.015 -0.0956256,0.015 -0.120643,0.0149997 -0.145669,0.0149916 -0.170713,0.0149541 -0.195785,0.0148485 -0.220899,0.0146158 -0.246066,0.0141727 -0.271299,0.0134082 -0.296607,0.0121791 -0.321987,0.0103079 -0.347421,0.00758133 -0.372861,0.00375399 -0.398217,-0.00144 -0.423339,-0.00826291 -0.448026,-0.0169397 -0.472005,-0.0275898 -0.495032,-0.0401648 -0.516954,-0.0545807 -0.537623,-0.070741 -0.556902,-0.0885374 -0.574661,-0.107851 -0.590781,-0.128552 -0.605155,-0.150501 -0.617685,-0.173553 -0.628288,-0.197552 -0.636894,-0.222338 -0.643443,-0.247744 -0.647893,-0.273601 -0.650214,-0.299736 -0.65039,-0.325972 -0.648419,-0.352135 -0.644316,-0.37805 -0.638108,-0.403542 -0.629835,-0.428441 -0.619554,-0.45258 -0.607334,-0.475797 -0.593256,-0.497937 -0.577415,-0.518852 -0.559916,-0.538402 -0.540878,-0.556455 -0.520426,-0.572891 -0.4987,-0.587599 -0.475843,-0.600482 -0.452007,-0.611453 -0.427416,-0.620449 -0.402349,-0.627562 -0.377021,-0.633004 -0.351586,-0.637037 -0.326147,-0.639926 -0.300756,-0.641922 -0.275436,-0.643243 -0.250191,-0.644073 -0.225014,-0.64456 -0.199893,-0.644821 -0.174814,-0.644943 -0.149767,-0.644988 -0.124738,-0.644999 -0.0997201,-0.645 -0.0747037,-0.645 -0.0496872,-0.645 -0.0246707,-0.645 0.000345723,-0.645 0.0253622,-0.645 0.0503786,-0.645 0.0753951,-0.645 0.100412,-0.645 0.125428,-0.645 0.150445,-0.645 0.175461,-0.645 0.200477,-0.645 0.225494,-0.645 0.25051,-0.645 0.275527,-0.645 0.300543,-0.645 0.32556,-0.645 0.350576,-0.645 0.375593,-0.645 0.400609,-0.645 0.425626,-0.645 0.450643,-0.645 0.475669,-0.645008 0.500713,-0.645046 0.525785,-0.645151 0.550898,-0.645383 0.576065,-0.645825 0.601298,-0.646588 0.626605,-0.647815 0.651986,-0.649684 0.677419,-0.652407 0.70286,-0.656229 0.728216,-0.661418 0.753339,-0.668234 0.778028,-0.676904 0.80201,-0.687547 0.825041,-0.700115 0.846968,-0.714524 0.867642,-0.730678 0.886926,-0.748468 0.904691,-0.767776 0.920818,-0.788472 0.935198,-0.810418 0.947735,-0.833466 0.958346,-0.857461 0.966958,-0.882245 0.973516,-0.907649 0.977974,-0.933505 0.980302,-0.959638 0.980486,-0.985875 0.978524,-1.01204 0.974428,-1.03795 0.968228,-1.06345 0.959963,-1.08835 0.949689,-1.11249 0.937476,-1.13571 0.923405,-1.15786 0.90757,-1.17878 0.890077,-1.19833 0.871044,-1.21639 0.850598,-1.23283 0.828876,-1.24755 0.806023,-1.26044 0.782191,-1.27142 0.757602,-1.28042 0.732535,-1.28754 0.707209,-1.29299 0.681774,-1.29702 0.656334,-1.29992 0.630943,-1.30192 0.605623,-1.30324 0.580378,-1.30407 0.5552,-1.30456 0.530079,-1.30482 0.505001,-1.30494 0.479953,-1.30499 0.454924,-1.305 0.429906,-1.305 0.40489,-1.305 0.379873,-1.305 0.354857,-1.305 0.32984,-1.305 0.304824,-1.305 0.279807,-1.305 0.254791,-1.305 0.229774,-1.305 0.204756,-1.305 0.179727,-1.30499 0.154679,-1.30494 0.1296,-1.30482 0.104478,-1.30455 0.0792989,-1.30406 0.0540521,-1.30322 0.0287304,-1.30188 0.00333781,-1.29987 -0.0221019,-1.29696 -0.0475354,-1.29289 -0.0728594,-1.28741 -0.0979175,-1.28026 -0.122496,-1.27121 -0.146309,-1.2602 -0.16914,-1.24727 -0.190838,-1.23252 -0.211257,-1.21604 -0.23026,-1.19795 -0.247721,-1.17837 -0.263521,-1.15742 -0.277556,-1.13525 -0.28973,-1.11201 -0.299964,-1.08785 -0.308187,-1.06294 -0.314346,-1.03743 -0.318398,-1.01151 -0.320318,-0.985345 -0.32009,-0.959109 -0.317719,-0.932979 -0.313218,-0.907131 -0.306619,-0.881737 -0.297965,-0.856968 -0.287315,-0.83299 -0.274739,-0.809963 -0.260323,-0.788041 -0.244162,-0.767372 -0.226365,-0.748093 -0.207052,-0.730335 -0.18635,-0.714215 -0.1644,-0.699842 -0.141348,-0.687312 -0.117351,-0.67671 -0.0926493,-0.668079 -0.0675187,-0.661298 -0.0421606,-0.65614 -0.0167191,-0.652342 0.0087139,-0.649638 0.0340926,-0.647785 0.0593984,-0.646569 0.08463,-0.645813 0.109796,-0.645377 0.134908,-0.645148 0.159979,-0.645044 0.185023,-0.645008 0.210048,-0.645 0.235066,-0.645 0.260082,-0.645 0.285099,-0.645 0.310115,-0.645 0.335132,-0.645 0.360148,-0.645 0.385165,-0.645 0.410181,-0.645 0.435198,-0.645 0.460214,-0.645 0.48523,-0.645 0.510247,-0.645 0.535263,-0.645 0.56028,-0.645 0.585296,-0.645 0.610313,-0.645 0.635329,-0.645 0.660346,-0.645 0.685362,-0.645 0.710379,-0.645 0.735395,-0.645 0.760412,-0.645 0.78543,-0.644999 0.810459,-0.644988 0.835507,-0.644941 0.860586,-0.644816 0.885709,-0.64455 0.910888,-0.644055 0.936135,-0.643214 0.961457,-0.641877 0.98685,-0.63986 1.01229,-0.636942 1.03772,-0.632874 1.06305,-0.627388 1.0881,-0.620226 1.11268,-0.611175 " stroke="blue" style="stroke-opacity:0.5;stroke-width:0.010;fill:none;marker-end:url(#secArrow-blue)"/>
			<text x="0.45064611513579089" y="-0.59080034332681963" text-anchor="start" font-size="0.029999999999999999" style="fill:blue">0</text>
		</g>
		<g id="sector">
			<polyline points="0.810656,0.0149874 0.784557,0.0149993 0.758468,0.015 0.732381,0.015 0.706294,0.015 0.680207,0.015 0.65412,0.015 0.628033,0.015 0.601946,0.015 0.575859,0.015 0.549772,0.015 0.523686,0.015 0.497599,0.015 0.471512,0.015 0.445425,0.015 0.419338,0.015 0.393251,0.015 0.367164,0.015 0.341077,0.015 0.31499,0.015 0.288903,0.015 0.262816,0.015 0.236729,0.015 0.210642,0.015 " stroke="seagreen" style="stroke-opacity:0.5;stroke-width:0.010;fill:none;marker-end:url(#secArrow-seagreen)"/>
			<text x="0.5106420564815346" y="0.058999999999999997" text-anchor="middle" font-size="0.029999999999999999" style="fill:seagreen">1</text>
		</g>
		<g id="sector">
			<polyline points="1.11268,-0.018825 1.08807,-0.00976408 1.06299,-0.00259647 1.03763,0.00289124 1.01217,0.00695877 0.986697,0.00987409 0.961275,0.0118887 0.935923,0.0132228 0.910646,0.0140615 0.885438,0.0145542 0.860286,0.0148182 0.835177,0.0149417 0.810099,0.014988 0.78504,0.0149992 0.759992,0.015 0.734946,0.015 0.709899,0.015 0.684853,0.015 0.659806,0.015 0.63476,0.015 0.609713,0.015 0.584667,0.015 0.559621,0.015 0.534574,0.015 0.509528,0.015 0.484481,0.015 0.459435,0.015 0.434388,0.015 0.409342,0.015 0.384296,0.015 0.359249,0.015 0.334203,0.015 0.309156,0.015 0.28411,0.015 0.259063,0.015 0.234017,0.015 0.208971,0.015 0.183924,0.015 0.158878,0.015 0.133831,0.015 0.108785,0.015 0.0837384,0.015 0.058692,0.015 0.0336455,0.015 0.0085991,0.015 -0.0164473,0.015 -0.0414938,0.015 -0.0665402,0.015 -0.0915866,0.015 -0.116634,0.0149999 -0.141688,0.0149941 -0.166758,0.0149633 -0.191855,0.0148716 -0.216991,0.0146633 -0.242179,0.0142589 -0.267432,0.0135514 -0.292758,0.0124023 -0.318159,0.010639 -0.343618,0.00805251 -0.369091,0.0044013 -0.394498,-0.000579915 -0.419697,-0.0071571 -0.444488,-0.0155623 -0.468619,-0.0259416 -0.491819,-0.0382611 -0.513933,-0.0524388 -0.534813,-0.0683793 -0.554316,-0.0859758 -0.572314,-0.10511 -0.588685,-0.125654 -0.603319,-0.147468 -0.616117,-0.170408 -0.626995,-0.194319 -0.635878,-0.219039 -0.642708,-0.244405 -0.647438,-0.270244 -0.650036,-0.296384 -0.650486,-0.322648 -0.648784,-0.348862 -0.644942,-0.374848 -0.638984,-0.400432 -0.630953,-0.425442 -0.6209,-0.449711 -0.608894,-0.473076 -0.595016,-0.495379 -0.579358,-0.516471 -0.562026,-0.53621 -0.543136,-0.554464 -0.522815,-0.57111 -0.501199,-0.586036 -0.478434,-0.599143 -0.454672,-0.610342 -0.430118,-0.619565 -0.405062,-0.626881 -0.379721,-0.632498 -0.354262,-0.636671 -0.32879,-0.639672 -0.303362,-0.641752 -0.278004,-0.643134 -0.252721,-0.644007 -0.227508,-0.644524 -0.202351,-0.644803 -0.17724,-0.644935 -0.152159,-0.644986 -0.1271,-0.644999 -0.102051,-0.645 -0.0770045,-0.645 -0.0519581,-0.645 -0.0269116,-0.645 -0.00186521,-0.645 0.0231812,-0.645 0.0482277,-0.645 0.0732741,-0.645 0.0983205,-0.645 0.123367,-0.645 0.148413,-0.645 0.17346,-0.645 0.198506,-0.645 0.223553,-0.645 0.248599,-0.645 0.273646,-0.645 0.298692,-0.645 0.323738,-0.645 0.348785,-0.645 0.373831,-0.645 0.398878,-0.645 0.423924,-0.645 0.448971,-0.645 0.474017,-0.645 0.499063,-0.645 0.52411,-0.645 0.549156,-0.645 0.574203,-0.645 0.599249,-0.645 0.624296,-0.645 0.649342,-0.645 0.674388,-0.645 0.699435,-0.645 0.724481,-0.645 0.749528,-0.645 0.774575,-0.645 0.799628,-0.644995 0.824696,-0.644968 0.849791,-0.644883 0.874923,-0.644687 0.900106,-0.644302 0.925353,-0.643624 0.950674,-0.642517 0.976068,-0.640812 1.00152,-0.638302 1.027,-0.634748 1.05241,-0.629886 1.07764,-0.62345 1.10247,-0.615201 1.12667,-0.604986 1.14995,-0.592823 1.17216,-0.578795 1.19315,-0.562995 1.21277,-0.54553 1.23089,-0.526518 1.2474,-0.506085 1.26218,-0.484369 1.27514,-0.461516 1.28617,-0.43768 " stroke="orange" style="stroke-opacity:0.5;stroke-width:0.010;fill:none;marker-end:url(#secArrow-orange)"/>
			<text x="-0.65573912731558415" y="-0.43792556432969187" text-anchor="end" font-size="0.029999999999999999" style="fill:orange">2</text>
		</g>
		<g id="sector">
			<polyline points="0.330093,-1.305 0.304957,-1.305 0.279821,-1.305 0.254684,-1.305 0.229548,-1.305 0.20441,-1.305 0.179261,-1.30499 0.154093,-1.30494 0.128893,-1.30481 0.103649,-1.30454 0.078347,-1.30403 0.0529764,-1.30317 0.0275302,-1.3018 0.00201273,-1.29974 -0.0235501,-1.29676 -0.049101,-1.2926 -0.0745371,-1.28699 -0.0996877,-1.27968 -0.124338,-1.27044 -0.148193,-1.25922 -0.171044,-1.24608 -0.192739,-1.2311 -0.213129,-1.21439 -0.232077,-1.19606 -0.249456,-1.17623 -0.265146,-1.15505 -0.279043,-1.13265 -0.291053,-1.10918 -0.301093,-1.0848 -0.309097,-1.05969 -0.315009,-1.03399 -0.318791,-1.0079 -0.320417,-0.981592 -0.319875,-0.955235 -0.317169,-0.929012 -0.312317,-0.903099 -0.305353,-0.877673 -0.296324,-0.852905 -0.285289,-0.828963 -0.272325,-0.806008 -0.257519,-0.784196 -0.24097,-0.763675 -0.222792,-0.744582 -0.203106,-0.727048 -0.182045,-0.71119 -0.159754,-0.697117 -0.136381,-0.684923 -0.112094,-0.674691 -0.0871592,-0.666438 -0.0618417,-0.660008 -0.0363332,-0.655159 -0.0107653,-0.65162 0.0147795,-0.649127 0.0402627,-0.647437 0.0656709,-0.646344 0.0910058,-0.645678 0.116277,-0.645301 0.141497,-0.645111 0.16668,-0.64503 0.191838,-0.645004 0.21698,-0.645 0.242116,-0.645 0.267253,-0.645 0.292389,-0.645 0.317525,-0.645 0.342661,-0.645 0.367797,-0.645 0.392933,-0.645 0.41807,-0.645 0.443206,-0.645 0.468348,-0.645004 0.493506,-0.64503 0.518689,-0.645111 0.543909,-0.645301 0.56918,-0.645678 0.594515,-0.646344 0.619923,-0.647437 0.645407,-0.649127 0.670951,-0.65162 0.696519,-0.655159 0.722028,-0.660008 0.747345,-0.666438 0.77228,-0.674691 0.796567,-0.684923 0.81994,-0.697117 0.842231,-0.71119 0.863292,-0.727048 0.882978,-0.744582 0.901156,-0.763675 0.917705,-0.784196 0.932511,-0.806008 0.945475,-0.828963 0.95651,-0.852905 0.965539,-0.877673 0.972503,-0.903099 0.977355,-0.929012 0.980061,-0.955235 0.980603,-0.981592 0.978977,-1.0079 0.975195,-1.03399 0.969283,-1.05969 0.961279,-1.0848 0.951239,-1.10918 0.939229,-1.13265 0.925332,-1.15505 0.909642,-1.17623 0.892263,-1.19606 0.873315,-1.21439 0.852925,-1.2311 0.83123,-1.24608 0.808379,-1.25922 0.784524,-1.27044 0.759874,-1.27968 0.734723,-1.28699 0.709287,-1.2926 0.683736,-1.29676 0.658173,-1.29974 0.632656,-1.3018 0.60721,-1.30317 0.581839,-1.30403 0.556537,-1.30454 0.531293,-1.30481 0.506093,-1.30494 0.480925,-1.30499 0.455776,-1.305 0.430638,-1.305 0.405502,-1.305 0.380365,-1.305 0.355229,-1.305 0.330093,-1.305 " stroke="blue" style="stroke-opacity:0.5;stroke-width:0.010;fill:none;marker-end:url(#secArrow-blue)"/>
			<text x="0.33009300000000025" y="-0.59080000000000044" text-anchor="middle" font-size="0.029999999999999999" style="fill:blue">3</text>
		</g>
		<g id="sectortable">
			<g>
				<rect x="0.98442250926356067" y="0.25000000000000006" width="0.48500000000000004" height="0.35000000000000003" style="fill:none;stroke:grey;stroke-width:0.005"/>
			</g>
			<g>
				<rect x="0.98442250926356067" y="0.32000000000000006" width="0.48500000000000004" height="0.070000000000000007" style="fill:white"/>
				<text x="1.0844225092635607" y="0.36500000000000005" text-anchor="middle" font-size="0.040000000000000001" style="fill:blue">0</text>
				<text x="1.3269225092635606" y="0.36500000000000005" text-anchor="middle" font-size="0.040000000000000001" style="fill:blue">gSecFull</text>
			</g>
			<g>
				<rect x="0.98442250926356067" y="0.39000000000000007" width="0.48500000000000004" height="0.070000000000000007" style="fill:whitesmoke"/>
				<text x="1.0844225092635607" y="0.43500000000000005" text-anchor="middle" font-size="0.040000000000000001" style="fill:seagreen">1</text>
				<text x="1.3269225092635606" y="0.43500000000000005" text-anchor="middle" font-size="0.040000000000000001" style="fill:seagreen">gSecLoad</text>
			</g>
			<g>
				<rect x="0.98442250926356067" y="0.46000000000000008" width="0.48500000000000004" height="0.070000000000000007" style="fill:white"/>
				<text x="1.0844225092635607" y="0.50500000000000012" text-anchor="middle" font-size="0.040000000000000001" style="fill:orange">2</text>
				<text x="1.3269225092635606" y="0.50500000000000012" text-anchor="middle" font-size="0.040000000000000001" style="fill:orange">gSecMajor</text>
			</g>
			<g>
				<rect x="0.98442250926356067" y="0.53000000000000003" width="0.48500000000000004" height="0.070000000000000007" style="fill:whitesmoke"/>
				<text x="1.0844225092635607" y="0.57500000000000007" text-anchor="middle" font-size="0.040000000000000001" style="fill:blue">3</text>
				<text x="1.3269225092635606" y="0.57500000000000007" text-anchor="middle" font-size="0.040000000000000001" style="fill:blue">gSecMinor</text>
			</g>
			<g>
				<rect x="0.98442250926356067" y="0.25000000000000006" width="0.48500000000000004" height="0.070000000000000007" style="fill:whitesmoke;stroke:grey;stroke-width:0.005"/>
				<text x="1.0844225092635607" y="0.29500000000000004" text-anchor="middle" font-size="0.040000000000000001" font-weight="bold" style="fill:grey">Index</text>
				<text x="1.3269225092635606" y="0.29500000000000004" text-anchor="middle" font-size="0.040000000000000001" font-weight="bold" style="fill:grey">Name</text>
				<rect x="0.98442250926356067" y="0.18000000000000005" width="0.48500000000000004" height="0.070000000000000007" style="fill:grey;stroke:grey;stroke-width:0.005"/>
				<text x="1.2269225092635607" y="0.23500000000000004" text-anchor="middle" font-size="0.050000000000000003" font-weight="bold" style="fill:white"> Sectors</text>
			</g>
		</g>
		<g id="triggerpoint">
			<line x1="-0.65305457613338636" y1="-0.40010881655876723" x2="-0.6269454433798638" y2="-0.39323035838422477" stroke="maroon" style="stroke-width:0.002"/>
			<polygon points="-0.637368,-0.388996 -0.646071,-0.391289 -0.637707,-0.405373 " stroke="maroon" fill="maroon" style="stroke-width:0.004;fill-opacity:0.2"/>
			<text x="-0.6709441670941334" y="-0.39282183419687966" text-anchor="end" font-size="0.029999999999999999" style="fill:maroon">0</text>
		</g>
		<g id="trpttable">
			<g>
				<rect x="1.6194225092635606" y="0.25000000000000006" width="0.41000000000000003" height="0.14000000000000001" style="fill:none;stroke:grey;stroke-width:0.005"/>
			</g>
			<g>
				<rect x="1.6194225092635606" y="0.32000000000000006" width="0.41000000000000003" height="0.070000000000000007" style="fill:white"/>
				<text x="1.7194225092635607" y="0.36500000000000005" text-anchor="middle" font-size="0.040000000000000001" style="fill:maroon">0</text>
				<text x="1.9244225092635607" y="0.36500000000000005" text-anchor="middle" font-size="0.040000000000000001" style="fill:maroon">PPtest</text>
			</g>
			<g>
				<rect x="1.6194225092635606" y="0.25000000000000006" width="0.41000000000000003" height="0.070000000000000007" style="fill:whitesmoke;stroke:grey;stroke-width:0.005"/>
				<text x="1.7194225092635607" y="0.29500000000000004" text-anchor="middle" font-size="0.040000000000000001" font-weight="bold" style="fill:maroon">Index</text>
				<text x="1.9244225092635607" y="0.29500000000000004" text-anchor="middle" font-size="0.040000000000000001" font-weight="bold" style="fill:maroon">Name</text>
				<rect x="1.6194225092635606" y="0.18000000000000005" width="0.41000000000000003" height="0.070000000000000007" style="fill:grey;stroke:grey;stroke-width:0.005"/>
				<text x="1.8244225092635606" y="0.23500000000000004" text-anchor="middle" font-size="0.050000000000000003" font-weight="bold" style="fill:white"> Process points</text>
			</g>
		</g>
		<g>
			<polyline points="-0.009,0.024 1e-10,0.024 1e-10,0.006 -0.0045,0.006 " stroke="lightgrey" fill="none" style="stroke-width:0.004"/>
		</g>
		<g>
			<polyline points="0.669,0.006 0.66,0.006 0.66,0.024 0.6645,0.024 " stroke="lightgrey" fill="none" style="stroke-width:0.004"/>
		</g>
		<g>
			<polyline points="0.651,0.024 0.66,0.024 0.66,0.006 0.6555,0.006 " stroke="lightgrey" fill="none" style="stroke-width:0.004"/>
		</g>
		<g>
			<polyline points="1.11755,-0.0305841 1.10924,-0.0271399 1.11612,-0.0105101 1.12028,-0.0122322 " stroke="lightgrey" fill="none" style="stroke-width:0.004"/>
		</g>
		<g>
			<polyline points="1.10781,-0.00706595 1.11612,-0.0105101 1.10924,-0.0271399 1.10508,-0.0254179 " stroke="lightgrey" fill="none" style="stroke-width:0.004"/>
		</g>
		<g>
			<polyline points="1.2813,-0.204079 1.27786,-0.195764 1.29449,-0.188876 1.29621,-0.193034 " stroke="lightgrey" fill="none" style="stroke-width:0.004"/>
		</g>
		<g>
			<polyline points="1.29105,-0.180561 1.29449,-0.188876 1.27786,-0.195764 1.27614,-0.191607 " stroke="lightgrey" fill="none" style="stroke-width:0.004"/>
		</g>
		<g>
			<polyline points="1.27442,-0.44255 1.27786,-0.434236 1.29449,-0.441124 1.29277,-0.445281 " stroke="lightgrey" fill="none" style="stroke-width:0.004"/>
		</g>
		<g>
			<polyline points="1.29793,-0.432809 1.29449,-0.441124 1.27786,-0.434236 1.27958,-0.430078 " stroke="lightgrey" fill="none" style="stroke-width:0.004"/>
		</g>
		<g>
			<polyline points="1.10092,-0.606304 1.10924,-0.60286 1.11612,-0.61949 1.11197,-0.621212 " stroke="lightgrey" fill="none" style="stroke-width:0.004"/>
		</g>
		<g>
			<polyline points="1.12444,-0.616046 1.11612,-0.61949 1.10924,-0.60286 1.11339,-0.601138 " stroke="lightgrey" fill="none" style="stroke-width:0.004"/>
		</g>
		<g>
			<polyline points="0.83281,-0.653952 0.82381,-0.653969 0.823776,-0.635969 0.828276,-0.635961 " stroke="purple" fill="none" style="stroke-width:0.004"/>
		</g>
		<g>
			<polyline points="0.651,-0.636 0.66,-0.636 0.66,-0.654 0.6555,-0.654 " stroke="lightgrey" fill="none" style="stroke-width:0.004"/>
		</g>
		<g>
			<polyline points="0.009,-0.654 -1e-10,-0.654 -1e-10,-0.636 0.0045,-0.636 " stroke="lightgrey" fill="none" style="stroke-width:0.004"/>
		</g>
		<g>
			<polyline points="-0.17259,-0.635953 -0.16359,-0.63597 -0.163623,-0.65397 -0.168123,-0.653961 " stroke="purple" fill="none" style="stroke-width:0.004"/>
		</g>
		<g>
			<polyline points="-0.45755,-0.599416 -0.449236,-0.60286 -0.456124,-0.61949 -0.460281,-0.617768 " stroke="lightgrey" fill="none" style="stroke-width:0.004"/>
		</g>
		<g>
			<polyline points="-0.447809,-0.622934 -0.456124,-0.61949 -0.449236,-0.60286 -0.445078,-0.604582 " stroke="lightgrey" fill="none" style="stroke-width:0.004"/>
		</g>
		<g>
			<polyline points="-0.621304,-0.425921 -0.61786,-0.434236 -0.63449,-0.441124 -0.636212,-0.436966 " stroke="lightgrey" fill="none" style="stroke-width:0.004"/>
		</g>
		<g>
			<polyline points="-0.631046,-0.449439 -0.63449,-0.441124 -0.61786,-0.434236 -0.616138,-0.438393 " stroke="lightgrey" fill="none" style="stroke-width:0.004"/>
		</g>
		<g>
			<polyline points="-0.63359,-0.385674 -0.631297,-0.394377 -0.648703,-0.398962 -0.649849,-0.394611 " stroke="darkorange" fill="none" style="stroke-width:0.004"/>
		</g>
		<g>
			<polyline points="-0.614416,-0.18745 -0.61786,-0.195764 -0.63449,-0.188876 -0.632768,-0.184719 " stroke="lightgrey" fill="none" style="stroke-width:0.004"/>
		</g>
		<g>
			<polyline points="-0.637934,-0.197191 -0.63449,-0.188876 -0.61786,-0.195764 -0.619582,-0.199922 " stroke="lightgrey" fill="none" style="stroke-width:0.004"/>
		</g>
		<g>
			<polyline points="-0.440921,-0.0236958 -0.449236,-0.0271399 -0.456124,-0.0105101 -0.451966,-0.00878803 " stroke="lightgrey" fill="none" style="stroke-width:0.004"/>
		</g>
		<g>
			<polyline points="-0.464439,-0.0139543 -0.456124,-0.0105101 -0.449236,-0.0271399 -0.453393,-0.028862 " stroke="lightgrey" fill="none" style="stroke-width:0.004"/>
		</g>
		<g>
			<polyline points="0.009,0.006 -1e-10,0.006 -1e-10,0.024 0.0045,0.024 " stroke="lightgrey" fill="none" style="stroke-width:0.004"/>
		</g>
		<g>
			<polyline points="0.321093,-0.636 0.330093,-0.636 0.330093,-0.654 0.325593,-0.654 " stroke="lightgrey" fill="none" style="stroke-width:0.004"/>
		</g>
		<g>
			<polyline points="0.444093,-0.654 0.435093,-0.654 0.435093,-0.636 0.439593,-0.636 " stroke="lightgrey" fill="none" style="stroke-width:0.004"/>
		</g>
		<g>
			<polyline points="0.426093,-0.636 0.435093,-0.636 0.435093,-0.654 0.430593,-0.654 " stroke="lightgrey" fill="none" style="stroke-width:0.004"/>
		</g>
		<g>
			<polyline points="0.787643,-0.690584 0.779329,-0.68714 0.786217,-0.67051 0.790374,-0.672232 " stroke="lightgrey" fill="none" style="stroke-width:0.004"/>
		</g>
		<g>
			<polyline points="0.669,-0.654 0.66,-0.654 0.66,-0.636 0.6645,-0.636 " stroke="lightgrey" fill="none" style="stroke-width:0.004"/>
		</g>
		<g>
			<polyline points="0.426093,-0.636 0.435093,-0.636 0.435093,-0.654 0.430593,-0.654 " stroke="lightgrey" fill="none" style="stroke-width:0.004"/>
		</g>
		<g>
			<polyline points="0.777902,-0.667066 0.786217,-0.67051 0.779329,-0.68714 0.775171,-0.685418 " stroke="lightgrey" fill="none" style="stroke-width:0.004"/>
		</g>
		<g>
			<polyline points="0.826299,-0.711301 0.818549,-0.706724 0.827704,-0.691225 0.831578,-0.693514 " stroke="purple" fill="none" style="stroke-width:0.004"/>
		</g>
		<g>
			<polyline points="0.951397,-0.864079 0.947953,-0.855764 0.964583,-0.848876 0.966305,-0.853034 " stroke="lightgrey" fill="none" style="stroke-width:0.004"/>
		</g>
		<g>
			<polyline points="0.961139,-0.840561 0.964583,-0.848876 0.947953,-0.855764 0.946231,-0.851607 " stroke="lightgrey" fill="none" style="stroke-width:0.004"/>
		</g>
		<g>
			<polyline points="0.944509,-1.10255 0.947953,-1.09424 0.964583,-1.10112 0.962861,-1.10528 " stroke="lightgrey" fill="none" style="stroke-width:0.004"/>
		</g>
		<g>
			<polyline points="0.968027,-1.09281 0.964583,-1.10112 0.947953,-1.09424 0.949675,-1.09008 " stroke="lightgrey" fill="none" style="stroke-width:0.004"/>
		</g>
		<g>
			<polyline points="0.771014,-1.2663 0.779329,-1.26286 0.786217,-1.27949 0.782059,-1.28121 " stroke="lightgrey" fill="none" style="stroke-width:0.004"/>
		</g>
		<g>
			<polyline points="0.794532,-1.27605 0.786217,-1.27949 0.779329,-1.26286 0.783486,-1.26114 " stroke="lightgrey" fill="none" style="stroke-width:0.004"/>
		</g>
		<g>
			<polyline points="0.321093,-1.296 0.330093,-1.296 0.330093,-1.314 0.325593,-1.314 " stroke="lightgrey" fill="none" style="stroke-width:0.004"/>
		</g>
		<g>
			<polyline points="0.339093,-1.314 0.330093,-1.314 0.330093,-1.296 0.334593,-1.296 " stroke="lightgrey" fill="none" style="stroke-width:0.004"/>
		</g>
		<g>
			<polyline points="-0.127457,-1.25942 -0.119143,-1.26286 -0.126031,-1.27949 -0.130188,-1.27777 " stroke="lightgrey" fill="none" style="stroke-width:0.004"/>
		</g>
		<g>
			<polyline points="-0.117716,-1.28293 -0.126031,-1.27949 -0.119143,-1.26286 -0.114985,-1.26458 " stroke="lightgrey" fill="none" style="stroke-width:0.004"/>
		</g>
		<g>
			<polyline points="-0.291211,-1.08592 -0.287767,-1.09424 -0.304397,-1.10112 -0.306119,-1.09697 " stroke="lightgrey" fill="none" style="stroke-width:0.004"/>
		</g>
		<g>
			<polyline points="-0.300953,-1.10944 -0.304397,-1.10112 -0.287767,-1.09424 -0.286045,-1.09839 " stroke="lightgrey" fill="none" style="stroke-width:0.004"/>
		</g>
		<g>
			<polyline points="-0.284323,-0.84745 -0.287767,-0.855764 -0.304397,-0.848876 -0.302675,-0.844719 " stroke="lightgrey" fill="none" style="stroke-width:0.004"/>
		</g>
		<g>
			<polyline points="-0.307841,-0.857191 -0.304397,-0.848876 -0.287767,-0.855764 -0.289489,-0.859922 " stroke="lightgrey" fill="none" style="stroke-width:0.004"/>
		</g>
		<g>
			<polyline points="-0.175267,-0.695802 -0.167518,-0.691225 -0.158363,-0.706724 -0.162238,-0.709012 " stroke="purple" fill="none" style="stroke-width:0.004"/>
		</g>
		<g>
			<polyline points="-0.110828,-0.683696 -0.119143,-0.68714 -0.126031,-0.67051 -0.121873,-0.668788 " stroke="lightgrey" fill="none" style="stroke-width:0.004"/>
		</g>
		<g>
			<polyline points="-0.134346,-0.673954 -0.126031,-0.67051 -0.119143,-0.68714 -0.1233,-0.688862 " stroke="lightgrey" fill="none" style="stroke-width:0.004"/>
		</g>
		<g>
			<polyline points="0.234093,-0.654 0.225093,-0.654 0.225093,-0.636 0.229593,-0.636 " stroke="lightgrey" fill="none" style="stroke-width:0.004"/>
		</g>
		<g>
			<polyline points="0.339093,-0.654 0.330093,-0.654 0.330093,-0.636 0.334593,-0.636 " stroke="lightgrey" fill="none" style="stroke-width:0.004"/>
		</g>
		<g>
			<polyline points="0.216093,-0.636 0.225093,-0.636 0.225093,-0.654 0.220593,-0.654 " stroke="lightgrey" fill="none" style="stroke-width:0.004"/>
		</g>
		<g>
			<polyline points="-0.009,-0.636 1e-10,-0.636 1e-10,-0.654 -0.0045,-0.654 " stroke="lightgrey" fill="none" style="stroke-width:0.004"/>
		</g>
		<g>
			<polyline points="0.234093,-0.654 0.225093,-0.654 0.225093,-0.636 0.229593,-0.636 " stroke="lightgrey" fill="none" style="stroke-width:0.004"/>
		</g>
	</g>
</svg>
